<svg width="35" height="31" viewBox="0 0 35 31" fill="none" xmlns="http://www.w3.org/2000/svg">
<path d="M15.7729 3.79621L3.40552 16.1636C2.19816 17.371 2.19816 19.3288 3.40552 20.5361L9.8545 26.9851C11.0619 28.1925 13.0196 28.1925 14.227 26.9851L26.5944 14.6177C27.1743 14.0378 27.5 13.2514 27.5 12.4315V5.98247C27.5 4.27489 26.1157 2.89062 24.4082 2.89062H17.9592C17.1392 2.89062 16.3528 3.21637 15.7729 3.79621Z" stroke="black" stroke-linecap="round" stroke-linejoin="round"/>
<path d="M22.0312 10.2031C21.013 10.2031 20.1875 9.37764 20.1875 8.35937C20.1875 7.34109 21.013 6.51562 22.0312 6.51562C23.0495 6.51562 23.875 7.34109 23.875 8.35937C23.875 9.37764 23.0495 10.2031 22.0312 10.2031Z" stroke="black"/>
<path d="M22.9439 12.7071C23.351 12.0113 24.3567 12.0113 24.7638 12.7071C25.2814 13.5919 26.3796 13.9488 27.3184 13.5372C28.0568 13.2135 28.8704 13.8047 28.7907 14.6069C28.6894 15.6269 29.3682 16.5611 30.3696 16.78C31.1572 16.9521 31.468 17.9086 30.932 18.5108C30.2504 19.2765 30.2504 20.4312 30.932 21.1969C31.468 21.7991 31.1572 22.7556 30.3696 22.9277C29.3682 23.1466 28.6894 24.0808 28.7907 25.1008C28.8704 25.903 28.0568 26.4942 27.3184 26.1705C26.3796 25.7589 25.2814 26.1158 24.7638 27.0006C24.3567 27.6964 23.351 27.6964 22.9439 27.0006C22.4263 26.1158 21.3281 25.7589 20.3893 26.1705C19.6509 26.4942 18.8373 25.903 18.917 25.1008C19.0183 24.0808 18.3395 23.1466 17.3381 22.9277C16.5505 22.7556 16.2397 21.7991 16.7757 21.1969C17.4573 20.4312 17.4573 19.2765 16.7757 18.5108C16.2397 17.9086 16.5505 16.9521 17.3381 16.78C18.3395 16.5611 19.0183 15.6269 18.917 14.6069C18.8373 13.8047 19.6509 13.2135 20.3893 13.5372C21.3281 13.9488 22.4263 13.5919 22.9439 12.7071Z" stroke="#727272" stroke-width="0.965854"/>
<path d="M22.5271 12.4633C23.1206 11.4487 24.5871 11.4487 25.1806 12.4633C25.5745 13.1365 26.4102 13.4081 27.1245 13.0949C28.2011 12.6229 29.3875 13.4849 29.2713 14.6546C29.1942 15.4308 29.7107 16.1417 30.4727 16.3082C31.6211 16.5592 32.0742 17.9538 31.2927 18.8319C30.7741 19.4145 30.7741 20.2932 31.2927 20.8758C32.0742 21.7539 31.6211 23.1485 30.4727 23.3995C29.7107 23.566 29.1942 24.2769 29.2713 25.0531C29.3875 26.2228 28.2011 27.0848 27.1245 26.6128C26.4102 26.2996 25.5745 26.5712 25.1806 27.2444C24.5871 28.259 23.1206 28.259 22.5271 27.2444C22.1332 26.5712 21.2975 26.2996 20.5832 26.6128C19.5066 27.0848 18.3202 26.2228 18.4364 25.0531C18.5135 24.2769 17.997 23.566 17.235 23.3995C16.0866 23.1485 15.6335 21.7539 16.415 20.8758C16.9336 20.2932 16.9336 19.4145 16.415 18.8319C15.6335 17.9538 16.0866 16.5592 17.235 16.3082C17.997 16.1417 18.5135 15.4308 18.4364 14.6546C18.3202 13.4849 19.5066 12.6229 20.5832 13.0949C21.2975 13.4081 22.1332 13.1365 22.5271 12.4633Z" fill="#175C65"/>
<path d="M22.4049 17.441C22.4049 17.9744 21.9724 18.4068 21.439 18.4068C20.9056 18.4068 20.4732 17.9744 20.4732 17.441C20.4732 16.9075 20.9056 16.4751 21.439 16.4751C21.9724 16.4751 22.4049 16.9075 22.4049 17.441Z" stroke="white" stroke-width="0.965854"/>
<path d="M27.234 22.2691C27.234 22.8025 26.8015 23.2349 26.2681 23.2349C25.7347 23.2349 25.3023 22.8025 25.3023 22.2691C25.3023 21.7357 25.7347 21.3032 26.2681 21.3032C26.8015 21.3032 27.234 21.7357 27.234 22.2691Z" stroke="white" stroke-width="0.965854"/>
<path d="M26.1781 16.2729L21.3489 23.0339" stroke="white" stroke-width="0.965854"/>
</svg>
