<svg width="480" height="480" viewBox="0 0 480 480" fill="none" xmlns="http://www.w3.org/2000/svg">
<path d="M153.833 46.2302C151.906 41.4022 154.257 35.9272 159.084 33.9992C174.43 27.8722 190.551 23.5052 206.998 21.0192C212.142 20.2442 216.934 23.7792 217.711 28.9182C218.488 34.0582 214.951 38.8542 209.812 39.6312C194.791 41.9022 180.071 45.8882 166.065 51.4812C161.217 53.4142 155.753 51.0392 153.833 46.2302Z" fill="black"/>
<path d="M69.4812 115.333C65.4002 112.114 64.7022 106.196 67.9212 102.115C78.4112 88.8167 90.4482 76.7258 103.698 66.1777C107.764 62.9407 113.686 63.6117 116.923 67.6787C120.161 71.7457 119.489 77.6667 115.422 80.9037C103.303 90.5517 92.2942 101.611 82.6992 113.773C79.4862 117.846 73.5692 118.558 69.4812 115.333Z" fill="black"/>
<path d="M30.7701 217.523C25.6261 216.775 22.0621 212 22.8101 206.856C25.2571 190.017 29.6561 173.49 35.8841 157.736C37.7951 152.902 43.2621 150.532 48.0971 152.443C52.9311 154.354 55.3011 159.822 53.3901 164.656C47.6971 179.057 43.6761 194.165 41.4381 209.563C40.6931 214.68 35.9401 218.274 30.7701 217.523Z" fill="black"/>
<path d="M35.8939 320.201C29.6669 304.448 25.2679 287.922 22.8199 271.081C22.0719 265.937 25.6359 261.161 30.7799 260.413C35.9239 259.668 40.6999 263.229 41.4479 268.373C43.6859 283.773 47.7079 298.882 53.3999 313.281C55.3109 318.115 52.9409 323.582 48.1069 325.494C43.3009 327.394 37.8159 325.063 35.8939 320.201Z" fill="black"/>
<path d="M103.698 411.76C90.459 401.222 78.422 389.131 67.921 375.823C64.701 371.743 65.399 365.824 69.48 362.604C73.56 359.384 79.479 360.083 82.699 364.163C92.304 376.336 103.313 387.395 115.421 397.032C119.488 400.269 120.161 406.19 116.924 410.257C113.679 414.334 107.757 414.991 103.698 411.76Z" fill="black"/>
<path d="M208.012 457.088C191.239 454.628 174.778 450.207 159.087 443.949C154.259 442.023 151.906 436.548 153.832 431.72C155.758 426.892 161.232 424.54 166.061 426.465C180.389 432.18 195.422 436.217 210.744 438.464C215.887 439.218 219.445 443.999 218.69 449.142C217.936 454.282 213.158 457.844 208.012 457.088Z" fill="black"/>
<path d="M261.31 449.132C260.556 443.989 264.114 439.208 269.257 438.454C284.579 436.207 299.612 432.17 313.94 426.455C318.77 424.531 324.243 426.883 326.169 431.711C328.095 436.539 325.743 442.014 320.914 443.94C305.223 450.198 288.763 454.619 271.989 457.079C266.857 457.831 262.066 454.287 261.31 449.132Z" fill="black"/>
<path d="M363.077 410.259C359.839 406.192 360.511 400.271 364.578 397.034C376.697 387.385 387.707 376.326 397.3 364.165C400.519 360.084 406.437 359.385 410.519 362.605C414.6 365.824 415.298 371.742 412.08 375.823C401.59 389.12 389.554 401.211 376.303 411.76C372.254 414.983 366.33 414.344 363.077 410.259Z" fill="black"/>
<path d="M431.904 325.494C427.069 323.583 424.7 318.115 426.611 313.281C432.303 298.882 436.324 283.772 438.563 268.373C439.31 263.229 444.089 259.667 449.23 260.413C454.374 261.161 457.938 265.937 457.19 271.081C454.741 287.921 450.343 304.448 444.116 320.201C442.196 325.059 436.714 327.396 431.904 325.494Z" fill="black"/>
<path d="M438.553 209.563C436.316 194.176 432.298 179.065 426.609 164.651C424.701 159.816 427.074 154.35 431.909 152.441C436.745 150.531 442.21 152.906 444.119 157.741C450.34 173.507 454.736 190.032 457.18 206.856C457.928 212 454.365 216.776 449.221 217.524C444.048 218.274 439.296 214.68 438.553 209.563Z" fill="black"/>
<path d="M397.313 113.776C387.704 101.606 376.689 90.5449 364.578 80.9029C360.512 77.6659 359.839 71.7449 363.077 67.6779C366.314 63.6119 372.235 62.9389 376.302 66.1769C389.543 76.7179 401.582 88.8079 412.087 102.111C415.307 106.191 414.612 112.109 410.533 115.33C406.438 118.564 400.522 117.84 397.313 113.776Z" fill="black"/>
<path d="M313.938 51.4809C299.915 45.8859 285.196 41.8989 270.188 39.6299C265.049 38.8529 261.512 34.0569 262.289 28.9169C263.067 23.7779 267.863 20.2419 273.002 21.0179C289.432 23.5019 305.552 27.8689 320.914 33.9969C325.741 35.9229 328.094 41.3989 326.168 46.2259C324.241 51.0559 318.766 53.4069 313.938 51.4809Z" fill="black"/>
<path d="M450.091 279.263C433.599 279.263 420.182 265.846 420.182 249.355V228.583C420.182 212.092 433.599 198.675 450.091 198.675C466.583 198.675 479.999 212.092 479.999 228.583V249.355C479.999 265.846 466.582 279.263 450.091 279.263ZM450.091 217.497C443.979 217.497 439.005 222.469 439.005 228.581V249.353C439.005 255.465 443.978 260.438 450.091 260.438C456.203 260.438 461.175 255.465 461.175 249.353V228.581C461.175 222.47 456.203 217.497 450.091 217.497Z" fill="black"/>
<path d="M401.157 157.352L390.909 139.521C382.682 125.208 387.59 106.835 401.849 98.5648C416.157 90.2668 434.456 95.1588 442.729 109.553L452.978 127.383C461.205 141.696 456.297 160.069 442.037 168.339C427.73 176.636 409.43 171.745 401.157 157.352ZM411.292 114.849C405.977 117.932 404.154 124.792 407.229 130.142L417.477 147.973C420.541 153.304 427.294 155.129 432.595 152.057C437.91 148.974 439.734 142.114 436.659 136.764L426.41 118.934C424.925 116.349 422.53 114.503 419.667 113.736C416.916 112.998 413.931 113.319 411.292 114.849Z" fill="black"/>
<path d="M338.951 87.328L321.2 77.034C306.941 68.764 302.033 50.391 310.26 36.078C318.535 21.681 336.836 16.796 351.14 25.09L368.89 35.384C383.15 43.653 388.058 62.026 379.831 76.34C371.556 90.737 353.254 95.624 338.951 87.328ZM326.579 45.458C323.505 50.808 325.327 57.668 330.642 60.751L348.393 71.045C353.692 74.115 360.445 72.295 363.511 66.961C366.585 61.611 364.763 54.751 359.447 51.669L341.697 41.374C336.401 38.303 329.645 40.123 326.579 45.458Z" fill="black"/>
<path d="M100.169 76.3409C91.9422 62.0269 96.8502 43.6539 111.11 35.3849L128.861 25.0909C143.167 16.7939 161.468 21.6839 169.741 36.0789C177.967 50.3919 173.06 68.7649 158.801 77.0349L141.05 87.3289C126.742 95.6249 108.441 90.7339 100.169 76.3409ZM138.304 41.3739L120.553 51.6679C115.237 54.7509 113.414 61.6109 116.489 66.9609C119.553 72.2919 126.304 74.1189 131.607 71.0449L149.358 60.7509C154.673 57.6679 156.497 50.8079 153.422 45.4579C151.936 42.8729 149.541 41.0279 146.678 40.2599C143.837 39.4999 140.862 39.8899 138.304 41.3739Z" fill="black"/>
<path d="M37.9633 168.339C23.7033 160.069 18.7963 141.696 27.0223 127.383L37.2703 109.553C45.5433 95.1601 63.8443 90.2681 78.1503 98.5651C92.4103 106.835 97.3183 125.208 89.0913 139.521L78.8433 157.351C74.8453 164.307 68.3843 169.279 60.6513 171.35C52.9323 173.42 44.8753 172.348 37.9633 168.339ZM53.5903 118.933L43.3423 136.763C40.2673 142.113 42.0913 148.973 47.4063 152.056C52.6903 155.12 59.4513 153.317 62.5233 147.972L72.7713 130.142C75.8463 124.792 74.0233 117.932 68.7073 114.849C63.4103 111.778 56.6573 113.598 53.5903 118.933Z" fill="black"/>
<path d="M29.91 279.263C13.418 279.263 0.00195312 265.846 0.00195312 249.355V228.583C0.00195312 212.092 13.419 198.675 29.91 198.675C46.402 198.675 59.818 212.092 59.818 228.583V249.355C59.818 265.846 46.401 279.263 29.91 279.263ZM29.91 217.497C23.798 217.497 18.825 222.469 18.825 228.581V249.353C18.825 255.465 23.798 260.438 29.91 260.438C36.022 260.438 40.9949 255.465 40.9949 249.353V228.581C40.9949 222.47 36.022 217.497 29.91 217.497Z" fill="black"/>
<path d="M37.2698 368.383L27.0218 350.553C18.7948 336.239 23.7028 317.866 37.9628 309.597C52.2708 301.3 70.5708 306.191 78.8438 320.585L89.0918 338.415C97.3198 352.728 92.4118 371.101 78.1508 379.371C63.8398 387.669 45.5428 382.775 37.2698 368.383ZM47.4058 325.881C42.0898 328.964 40.2668 335.824 43.3418 341.174L53.5898 359.004C56.6528 364.333 63.4058 366.163 68.7068 363.089C74.0228 360.006 75.8468 353.146 72.7718 347.797L62.5228 329.966C59.4538 324.626 52.6968 322.812 47.4058 325.881Z" fill="black"/>
<path d="M128.861 452.846L111.11 442.551C96.8502 434.282 91.9422 415.909 100.169 401.595C108.41 387.257 126.689 382.28 141.049 390.607L158.8 400.902C173.06 409.171 177.968 427.544 169.741 441.858C161.484 456.225 143.194 461.159 128.861 452.846ZM116.489 410.976C113.414 416.326 115.237 423.186 120.553 426.269L138.304 436.564C143.601 439.635 150.356 437.814 153.422 432.479C156.497 427.129 154.674 420.269 149.358 417.186L131.607 406.891C126.31 403.82 119.556 405.641 116.489 410.976Z" fill="black"/>
<path d="M250.202 480H229.797C213.28 480 199.843 466.563 199.843 450.046V449.954C199.843 433.438 213.28 420 229.797 420H250.202C266.719 420 280.157 433.438 280.157 449.954C280.157 466.563 266.719 480 250.202 480ZM229.797 438.823C223.66 438.823 218.667 443.816 218.667 449.953V450.045C218.667 456.182 223.66 461.176 229.797 461.176H250.202C256.34 461.176 261.333 456.182 261.333 450.045C261.333 443.816 256.339 438.823 250.202 438.823H229.797Z" fill="black"/>
<path d="M310.26 441.859C302.033 427.545 306.941 409.172 321.2 400.903L338.951 390.608C353.257 382.31 371.558 387.203 379.831 401.596C388.058 415.909 383.15 434.282 368.89 442.552L351.14 452.846C336.691 461.225 318.451 456.108 310.26 441.859ZM348.394 406.891L330.643 417.186C325.328 420.269 323.505 427.129 326.58 432.479C329.644 437.81 336.395 439.637 341.698 436.563L359.448 426.269C364.764 423.186 366.587 416.326 363.512 410.977C360.449 405.646 353.697 403.818 348.394 406.891Z" fill="black"/>
<path d="M401.849 379.371C387.589 371.102 382.682 352.729 390.909 338.415L401.157 320.585C409.432 306.189 427.734 301.301 442.037 309.597C456.297 317.866 461.205 336.239 452.978 350.553L442.729 368.383C438.731 375.339 432.27 380.31 424.537 382.383C416.834 384.447 408.775 383.388 401.849 379.371ZM417.477 329.965L407.229 347.795C404.154 353.145 405.977 360.005 411.292 363.088C416.587 366.159 423.344 364.339 426.41 359.003L436.659 341.173C439.733 335.824 437.911 328.963 432.595 325.88C427.299 322.81 420.543 324.629 417.477 329.965Z" fill="black"/>
<path d="M205.438 51.4549L192.592 12.3519C190.97 7.41394 193.658 2.09494 198.596 0.472936C203.535 -1.15006 208.853 1.53894 210.475 6.47694L223.321 45.5799C224.943 50.5179 222.255 55.8369 217.317 57.4589C212.351 59.0899 207.051 56.3669 205.438 51.4549Z" fill="black"/>
<path d="M205.438 51.4549L192.592 12.3519C190.97 7.41394 193.658 2.09494 198.596 0.472936C203.535 -1.15006 208.853 1.53894 210.475 6.47694L223.321 45.5799C224.943 50.5179 222.255 55.8369 217.317 57.4589C212.351 59.0899 207.051 56.3669 205.438 51.4549Z" fill="black"/>
<path d="M262.684 57.467C257.746 55.845 255.057 50.526 256.68 45.588L269.525 6.48496C271.148 1.54696 276.466 -1.14004 281.405 0.480961C286.343 2.10296 289.032 7.42196 287.409 12.36L274.564 51.463C272.948 56.376 267.647 59.097 262.684 57.467Z" fill="black"/>
<path d="M262.684 57.467C257.746 55.845 255.057 50.526 256.68 45.588L269.525 6.48496C271.148 1.54696 276.466 -1.14004 281.405 0.480961C286.343 2.10296 289.032 7.42196 287.409 12.36L274.564 51.463C272.948 56.376 267.647 59.097 262.684 57.467Z" fill="black"/>
</svg>
