<svg width="24" height="26" viewBox="0 0 24 26" fill="none" xmlns="http://www.w3.org/2000/svg">
<path d="M23.2714 4.66495C23.2543 4.45553 23.0791 4.29443 22.8697 4.29443H17.8012C17.2051 4.29443 16.6634 3.92089 16.452 3.36409L15.6515 1.25976C15.5921 1.1037 15.4421 1 15.275 1H9.05565C8.88851 1 8.73849 1.1027 8.6791 1.25976L7.87865 3.36409C7.66721 3.91986 7.12551 4.29443 6.52946 4.29443H1.45996C1.25053 4.29443 1.07534 4.45553 1.05822 4.66495C1.026 5.0687 0.307101 14.6155 4.96268 19.6649C5.2013 19.9237 5.45099 20.1653 5.70975 20.3909L3.77057 21.9273C3.15639 22.4136 2.92583 23.206 3.18358 23.946C3.44134 24.6861 4.11392 25.1643 4.89723 25.1643H19.4322C20.2156 25.1643 20.8881 24.6861 21.1459 23.946C21.4036 23.206 21.1731 22.4136 20.5589 21.9273L18.6197 20.3909C18.8785 20.1653 19.1272 19.9237 19.3668 19.6649C24.0223 14.6155 23.3036 5.06859 23.2714 4.66495ZM8.63072 3.65105L9.33251 1.80651H14.9972L15.6989 3.65105C16.0282 4.51795 16.8729 5.10092 17.8012 5.10092H18.643C18.4386 6.26282 17.8999 8.29655 16.5407 9.78585C16.3484 9.67409 16.1279 9.60462 15.8903 9.60462C15.3264 9.60462 14.8492 9.96707 14.6689 10.4695C14.5461 10.4312 14.4172 10.4041 14.2803 10.4041C13.6047 10.4041 13.054 10.9226 12.9895 11.5821C12.7237 11.6133 12.4509 11.6354 12.1649 11.6354C11.879 11.6354 11.6061 11.6133 11.3403 11.5821C11.2759 10.9236 10.7261 10.4041 10.0495 10.4041C9.9136 10.4041 9.78474 10.4312 9.66088 10.4695C9.47965 9.9671 9.00341 9.60462 8.43957 9.60462C8.20195 9.60462 7.98146 9.67308 7.78915 9.78585C6.42991 8.29673 5.89123 6.26287 5.68686 5.10092H6.52858C7.45691 5.10092 8.30049 4.51896 8.63072 3.65105ZM13.7817 11.7069C13.7817 11.433 14.0052 11.2095 14.2791 11.2095C14.5529 11.2095 14.7764 11.433 14.7764 11.7069C14.7764 11.9808 14.5529 12.2043 14.2791 12.2043C14.0052 12.2043 13.7817 11.9808 13.7817 11.7069ZM15.3916 10.9074C15.3916 10.6326 15.6152 10.4101 15.889 10.4101C16.1629 10.4101 16.3864 10.6336 16.3864 10.9074C16.3864 11.1823 16.1629 11.4048 15.889 11.4048C15.6152 11.4048 15.3916 11.1813 15.3916 10.9074ZM13.532 15.0416C13.532 15.7957 12.9188 16.4089 12.1647 16.4089C11.4105 16.4089 10.7974 15.7957 10.7974 15.0416C10.7974 14.5522 11.5213 13.4638 12.1647 12.6634C12.8091 13.4638 13.532 14.5512 13.532 15.0416ZM8.44032 10.41C8.71519 10.41 8.93771 10.6335 8.93771 10.9074C8.93771 11.1822 8.71418 11.4047 8.44032 11.4047C8.16645 11.4047 7.94293 11.1812 7.94293 10.9074C7.94293 10.6325 8.16645 10.41 8.44032 10.41ZM10.0503 11.2094C10.3251 11.2094 10.5477 11.4329 10.5477 11.7068C10.5477 11.9807 10.3241 12.2042 10.0503 12.2042C9.77641 12.2042 9.55289 11.9807 9.55289 11.7068C9.55289 11.4319 9.77641 11.2094 10.0503 11.2094ZM20.0594 22.5596C20.4742 22.8878 20.4994 23.355 20.3856 23.6823C20.2718 24.0095 19.9617 24.3599 19.4331 24.3599H4.89708C4.36848 24.3599 4.05837 24.0095 3.9446 23.6823C3.83083 23.355 3.856 22.8879 4.27081 22.5596L6.35803 20.9053C7.96899 22.0703 9.91323 22.6613 12.1655 22.6613C14.4168 22.6613 16.362 22.0703 17.9729 20.9053L20.0601 22.5596H20.0594ZM18.7726 19.1212C17.0992 20.9355 14.8761 21.8557 12.1646 21.8557C9.45404 21.8557 7.22988 20.9354 5.55654 19.1212C1.63688 14.8724 1.75777 6.907 1.84025 5.10066H4.87092C5.0743 6.33607 5.65627 8.67699 7.2481 10.3846C7.17762 10.5447 7.13634 10.7219 7.13634 10.9082C7.13634 11.6271 7.72132 12.211 8.43921 12.211C8.57514 12.211 8.704 12.1849 8.82685 12.1456C9.00808 12.648 9.48533 13.0105 10.0492 13.0105C10.5244 13.0105 10.9372 12.7517 11.1648 12.3701C11.2262 12.3782 11.2866 12.3872 11.349 12.3943C10.7811 13.1232 9.99077 14.2751 9.99077 15.0422C9.99077 16.2403 10.9654 17.215 12.1636 17.215C13.3617 17.215 14.3363 16.2404 14.3363 15.0422C14.3363 14.276 13.546 13.1241 12.9781 12.3943C13.0405 12.3882 13.1009 12.3782 13.1624 12.3701C13.3899 12.7517 13.8027 13.0105 14.2779 13.0105C14.8418 13.0105 15.319 12.648 15.5003 12.1456C15.6231 12.1838 15.752 12.211 15.8879 12.211C16.6068 12.211 17.1908 11.6261 17.1908 10.9082C17.1908 10.7219 17.1505 10.5457 17.079 10.3846C18.6709 8.67699 19.2528 6.33504 19.4562 5.10066H22.4869C22.5694 6.90694 22.6892 14.8731 18.7695 19.1212H18.7726Z" fill="black" stroke="black" stroke-width="0.5"/>
<path d="M16.8327 15.0395C17.0552 15.0395 17.2354 14.8593 17.2354 14.6368V14.3327C17.2354 14.1102 17.0552 13.93 16.8327 13.93C16.6102 13.93 16.4299 14.1102 16.4299 14.3327V14.6368C16.4299 14.8593 16.6102 15.0395 16.8327 15.0395Z" fill="black" stroke="black" stroke-width="0.5"/>
<path d="M16.8327 15.8298C16.6102 15.8298 16.4299 16.01 16.4299 16.2325V16.5366C16.4299 16.7591 16.6102 16.9394 16.8327 16.9394C17.0552 16.9394 17.2354 16.7591 17.2354 16.5366V16.2325C17.2354 16.01 17.0552 15.8298 16.8327 15.8298Z" fill="black" stroke="black" stroke-width="0.5"/>
<path d="M17.9334 15.0323H17.6293C17.4068 15.0323 17.2266 15.2125 17.2266 15.4351C17.2266 15.6576 17.4068 15.8378 17.6293 15.8378H17.9334C18.1559 15.8378 18.3361 15.6576 18.3361 15.4351C18.3361 15.2125 18.1559 15.0323 17.9334 15.0323Z" fill="black" stroke="black" stroke-width="0.5"/>
<path d="M16.034 15.0323H15.7299C15.5074 15.0323 15.3271 15.2126 15.3271 15.4351C15.3271 15.6576 15.5074 15.8378 15.7299 15.8378H16.034C16.2565 15.8378 16.4367 15.6576 16.4367 15.4351C16.4367 15.2126 16.2565 15.0323 16.034 15.0323Z" fill="black" stroke="black" stroke-width="0.5"/>
<path d="M7.49747 15.0395C7.71998 15.0395 7.90021 14.8593 7.90021 14.6368V14.3327C7.90021 14.1102 7.71998 13.93 7.49747 13.93C7.27495 13.93 7.09473 14.1102 7.09473 14.3327V14.6368C7.09473 14.8593 7.27495 15.0395 7.49747 15.0395Z" fill="black" stroke="black" stroke-width="0.5"/>
<path d="M7.49747 15.8298C7.27495 15.8298 7.09473 16.01 7.09473 16.2325V16.5366C7.09473 16.7591 7.27495 16.9394 7.49747 16.9394C7.71998 16.9394 7.90021 16.7591 7.90021 16.5366V16.2325C7.90021 16.01 7.71998 15.8298 7.49747 15.8298Z" fill="black" stroke="black" stroke-width="0.5"/>
<path d="M8.59963 15.0323H8.29556C8.07305 15.0323 7.89282 15.2126 7.89282 15.4351C7.89282 15.6576 8.07305 15.8378 8.29556 15.8378H8.59963C8.82215 15.8378 9.00238 15.6576 9.00238 15.4351C9.00238 15.2126 8.82215 15.0323 8.59963 15.0323Z" fill="black" stroke="black" stroke-width="0.5"/>
<path d="M6.69998 15.0323H6.3959C6.17339 15.0323 5.99316 15.2126 5.99316 15.4351C5.99316 15.6576 6.17339 15.8378 6.3959 15.8378H6.69998C6.92249 15.8378 7.10272 15.6576 7.10272 15.4351C7.10272 15.2126 6.92249 15.0323 6.69998 15.0323Z" fill="black" stroke="black" stroke-width="0.5"/>
</svg>
