<svg xmlns="http://www.w3.org/2000/svg" xmlns:xlink="http://www.w3.org/1999/xlink" version="1.1" x="0px" y="0px" viewBox="0 0 512 640" style="enable-background:new 0 0 512 512;" xml:space="preserve"><g><g><g><g><path d="M169.833,62.23c-1.927-4.828,0.424-10.303,5.251-12.231c15.346-6.127,31.467-10.494,47.914-12.98      c5.144-0.775,9.936,2.76,10.713,7.899c0.777,5.14-2.76,9.936-7.899,10.713c-15.021,2.271-29.741,6.257-43.747,11.85      C177.217,69.414,171.753,67.039,169.833,62.23z"/></g><g><path d="M85.481,131.333c-4.081-3.219-4.779-9.137-1.56-13.218c10.49-13.298,22.527-25.389,35.777-35.937      c4.066-3.237,9.988-2.566,13.225,1.501c3.238,4.067,2.566,9.988-1.501,13.225c-12.119,9.648-23.128,20.707-32.723,32.869      C95.486,133.846,89.569,134.558,85.481,131.333z"/></g><g><path d="M46.77,233.523c-5.144-0.748-8.708-5.523-7.96-10.667c2.447-16.839,6.846-33.366,13.074-49.12      c1.911-4.834,7.378-7.204,12.213-5.293c4.834,1.911,7.204,7.379,5.293,12.213c-5.693,14.401-9.714,29.509-11.952,44.907      C56.693,230.68,51.94,234.274,46.77,233.523z"/></g><g><path d="M51.894,336.201c-6.227-15.753-10.626-32.279-13.074-49.12c-0.748-5.144,2.816-9.92,7.96-10.668      c5.144-0.745,9.92,2.816,10.668,7.96c2.238,15.4,6.26,30.509,11.952,44.908c1.911,4.834-0.459,10.301-5.293,12.213      C59.301,343.394,53.816,341.063,51.894,336.201z"/></g><g><path d="M119.698,427.76c-13.239-10.538-25.276-22.629-35.777-35.937c-3.22-4.08-2.522-9.999,1.559-13.219      c4.08-3.22,9.999-2.521,13.219,1.559c9.605,12.173,20.614,23.232,32.722,32.869c4.067,3.237,4.74,9.158,1.503,13.225      C129.679,430.334,123.757,430.991,119.698,427.76z"/></g><g><path d="M224.012,473.088c-16.773-2.46-33.234-6.881-48.925-13.139c-4.828-1.926-7.181-7.401-5.255-12.229      c1.926-4.828,7.4-7.18,12.229-5.255c14.328,5.715,29.361,9.752,44.683,11.999c5.143,0.754,8.701,5.535,7.946,10.678      C233.936,470.282,229.158,473.844,224.012,473.088z"/></g><g><path d="M277.31,465.132c-0.754-5.143,2.804-9.924,7.947-10.678c15.322-2.247,30.355-6.284,44.683-11.999      c4.83-1.924,10.303,0.428,12.229,5.256c1.926,4.828-0.426,10.303-5.255,12.229c-15.691,6.258-32.151,10.679-48.925,13.139      C282.857,473.831,278.066,470.287,277.31,465.132z"/></g><g><path d="M379.077,426.259c-3.238-4.067-2.566-9.988,1.501-13.225c12.119-9.649,23.129-20.708,32.722-32.869      c3.219-4.081,9.137-4.78,13.219-1.56c4.081,3.219,4.779,9.137,1.561,13.218c-10.49,13.297-22.526,25.388-35.777,35.937      C388.254,430.983,382.33,430.344,379.077,426.259z"/></g><g><path d="M447.904,341.494c-4.835-1.911-7.204-7.379-5.293-12.213c5.692-14.399,9.713-29.509,11.952-44.908      c0.747-5.144,5.526-8.706,10.667-7.96c5.144,0.748,8.708,5.524,7.96,10.668c-2.449,16.84-6.847,33.367-13.074,49.12      C458.196,341.059,452.714,343.396,447.904,341.494z"/></g><g><path d="M454.553,225.563c-2.237-15.387-6.255-30.498-11.944-44.912c-1.908-4.835,0.465-10.301,5.3-12.21      c4.836-1.91,10.301,0.465,12.21,5.3c6.221,15.766,10.617,32.291,13.061,49.115c0.748,5.144-2.815,9.92-7.959,10.668      C460.048,234.274,455.296,230.68,454.553,225.563z"/></g><g><path d="M413.313,129.776c-9.609-12.17-20.624-23.231-32.735-32.873c-4.066-3.237-4.739-9.158-1.501-13.225      c3.237-4.066,9.158-4.739,13.225-1.501c13.241,10.541,25.28,22.631,35.785,35.934c3.22,4.08,2.525,9.998-1.554,13.219      C422.438,134.564,416.522,133.84,413.313,129.776z"/></g><g><path d="M329.938,67.481c-14.023-5.595-28.742-9.582-43.75-11.851c-5.139-0.777-8.676-5.573-7.899-10.713      c0.778-5.139,5.574-8.675,10.713-7.899c16.43,2.484,32.55,6.851,47.912,12.979c4.827,1.926,7.18,7.402,5.254,12.229      C340.241,67.056,334.766,69.407,329.938,67.481z"/></g><g><path d="M466.091,295.263c-16.492,0-29.909-13.417-29.909-29.908v-20.772c0-16.491,13.417-29.908,29.909-29.908      c16.492,0,29.908,13.417,29.908,29.908v20.772C495.999,281.846,482.582,295.263,466.091,295.263z M466.091,233.497      c-6.112,0-11.086,4.972-11.086,11.084v20.772c0,6.112,4.973,11.085,11.086,11.085c6.112,0,11.084-4.973,11.084-11.085v-20.772      C477.175,238.47,472.203,233.497,466.091,233.497z"/></g><g><path d="M417.157,173.352l-10.248-17.831c-8.227-14.313-3.319-32.686,10.94-40.956c14.308-8.298,32.607-3.406,40.88,10.988      l10.249,17.83c8.227,14.313,3.319,32.686-10.941,40.956l0,0C443.73,192.636,425.43,187.745,417.157,173.352z M427.292,130.849      c-5.315,3.083-7.138,9.943-4.063,15.293l10.248,17.831c3.064,5.331,9.817,7.156,15.118,4.084l0,0      c5.315-3.083,7.139-9.943,4.064-15.293l-10.249-17.83c-1.485-2.585-3.88-4.431-6.743-5.198      C432.916,128.998,429.931,129.319,427.292,130.849z"/></g><g><path d="M354.951,103.328L337.2,93.034c-14.259-8.27-19.167-26.643-10.94-40.956c8.275-14.397,26.576-19.282,40.88-10.988      l17.75,10.294c14.26,8.269,19.168,26.642,10.941,40.956C387.556,106.737,369.254,111.624,354.951,103.328z M342.579,61.458      c-3.074,5.35-1.252,12.21,4.063,15.293l17.751,10.294c5.299,3.07,12.052,1.25,15.118-4.084c3.074-5.35,1.252-12.21-4.064-15.292      l-17.75-10.295C352.401,54.303,345.645,56.123,342.579,61.458z"/></g><g><path d="M116.169,92.341c-8.227-14.314-3.319-32.687,10.941-40.956l17.751-10.294c14.306-8.297,32.607-3.407,40.88,10.988      c8.226,14.313,3.319,32.686-10.94,40.956l-17.751,10.294C142.742,111.625,124.441,106.734,116.169,92.341z M154.304,57.374      l-17.751,10.294c-5.316,3.083-7.139,9.943-4.064,15.293c3.064,5.331,9.815,7.158,15.118,4.084l17.751-10.294      c5.315-3.083,7.139-9.943,4.064-15.293c-1.486-2.585-3.881-4.43-6.744-5.198C159.837,55.5,156.862,55.89,154.304,57.374z"/></g><g><path d="M53.963,184.339c-14.26-8.27-19.167-26.643-10.941-40.956l10.248-17.83c8.273-14.393,26.574-19.285,40.88-10.988l0,0      c14.26,8.27,19.168,26.643,10.941,40.956l-10.248,17.83c-3.998,6.956-10.459,11.928-18.192,13.999      C68.932,189.42,60.875,188.348,53.963,184.339z M69.59,134.933l-10.248,17.83c-3.075,5.35-1.251,12.21,4.064,15.293      c5.284,3.064,12.045,1.261,15.117-4.084l10.248-17.83c3.075-5.35,1.252-12.21-4.064-15.293      C79.41,127.778,72.657,129.598,69.59,134.933z"/></g><g><path d="M45.91,295.263c-16.492,0-29.908-13.417-29.908-29.908v-20.772c0-16.491,13.417-29.908,29.908-29.908      c16.492,0,29.908,13.417,29.908,29.908v20.772C75.818,281.846,62.401,295.263,45.91,295.263z M45.91,233.497      c-6.112,0-11.085,4.972-11.085,11.084v20.772c0,6.112,4.973,11.085,11.085,11.085c6.112,0,11.085-4.973,11.085-11.085v-20.772      C56.995,238.47,52.022,233.497,45.91,233.497z"/></g><g><path d="M53.27,384.383l-10.248-17.83c-8.227-14.314-3.319-32.687,10.941-40.956h0c14.308-8.297,32.608-3.406,40.881,10.988      l10.248,17.83c8.228,14.313,3.32,32.686-10.941,40.956C79.84,403.669,61.543,398.775,53.27,384.383z M63.406,341.881      L63.406,341.881c-5.316,3.083-7.139,9.943-4.064,15.293l10.248,17.83c3.063,5.329,9.816,7.159,15.117,4.085      c5.316-3.083,7.14-9.943,4.065-15.292l-10.249-17.831C75.454,340.626,68.697,338.812,63.406,341.881z"/></g><g><path d="M144.861,468.846l-17.751-10.295c-14.26-8.269-19.168-26.642-10.941-40.956c8.241-14.338,26.52-19.315,40.88-10.988      l17.751,10.295c14.26,8.269,19.168,26.642,10.941,40.956C177.484,472.225,159.194,477.159,144.861,468.846z M132.489,426.976      C132.489,426.976,132.489,426.976,132.489,426.976c-3.075,5.35-1.252,12.21,4.064,15.293l17.751,10.295      c5.297,3.071,12.052,1.25,15.118-4.085c3.075-5.35,1.252-12.21-4.064-15.293l-17.751-10.295      C142.31,419.82,135.556,421.641,132.489,426.976z"/></g><g><path d="M266.202,496h-20.405c-16.517,0-29.954-13.437-29.954-29.954v-0.092c0-16.516,13.437-29.954,29.954-29.954h20.405      c16.517,0,29.955,13.438,29.955,29.954C296.157,482.563,282.719,496,266.202,496z M245.797,454.823      c-6.137,0-11.13,4.993-11.13,11.13v0.092c0,6.137,4.993,11.131,11.13,11.131h20.405c6.138,0,11.131-4.994,11.131-11.131      c0-6.229-4.994-11.222-11.131-11.222H245.797z"/></g><g><path d="M326.26,457.859c-8.227-14.314-3.319-32.687,10.94-40.956l17.751-10.295c14.306-8.298,32.607-3.405,40.88,10.988      c8.227,14.313,3.319,32.686-10.941,40.956l-17.75,10.294C352.691,477.225,334.451,472.108,326.26,457.859z M364.394,422.891      l-17.751,10.295c-5.315,3.083-7.138,9.943-4.063,15.293c3.064,5.331,9.815,7.158,15.118,4.084l17.75-10.294      c5.316-3.083,7.139-9.943,4.064-15.292C376.449,421.646,369.697,419.818,364.394,422.891z"/></g><g><path d="M417.849,395.371L417.849,395.371c-14.26-8.269-19.167-26.642-10.94-40.956l10.248-17.83      c8.275-14.396,26.577-19.284,40.88-10.988c14.26,8.269,19.168,26.642,10.941,40.956l-10.249,17.83      c-3.998,6.956-10.459,11.927-18.192,14C432.834,400.447,424.775,399.388,417.849,395.371z M433.477,345.965l-10.248,17.83      c-3.075,5.35-1.252,12.21,4.063,15.293l0,0c5.295,3.071,12.052,1.251,15.118-4.085l10.249-17.83      c3.074-5.349,1.252-12.21-4.064-15.293C443.299,338.81,436.543,340.629,433.477,345.965z"/></g><g><path d="M221.438,67.455l-12.846-39.103c-1.622-4.938,1.066-10.257,6.004-11.879c4.939-1.623,10.257,1.066,11.879,6.004      l12.846,39.103c1.622,4.938-1.066,10.257-6.004,11.879C228.351,75.09,223.051,72.367,221.438,67.455z"/></g><g><path d="M221.438,67.455l-12.846-39.103c-1.622-4.938,1.066-10.257,6.004-11.879c4.939-1.623,10.257,1.066,11.879,6.004      l12.846,39.103c1.622,4.938-1.066,10.257-6.004,11.879C228.351,75.09,223.051,72.367,221.438,67.455z"/></g><g><path d="M278.684,73.467c-4.938-1.622-7.627-6.941-6.004-11.879l12.845-39.103c1.623-4.938,6.941-7.625,11.88-6.004      c4.938,1.622,7.627,6.941,6.004,11.879l-12.845,39.103C288.948,72.376,283.647,75.097,278.684,73.467z"/></g><g><path d="M278.684,73.467c-4.938-1.622-7.627-6.941-6.004-11.879l12.845-39.103c1.623-4.938,6.941-7.625,11.88-6.004      c4.938,1.622,7.627,6.941,6.004,11.879l-12.845,39.103C288.948,72.376,283.647,75.097,278.684,73.467z"/></g></g></g></g><text x="0" y="527" fill="#000000" font-size="5px" font-weight="bold" font-family="'Helvetica Neue', Helvetica, Arial-Unicode, Arial, Sans-serif">Created by Icon Market</text><text x="0" y="532" fill="#000000" font-size="5px" font-weight="bold" font-family="'Helvetica Neue', Helvetica, Arial-Unicode, Arial, Sans-serif">from the Noun Project</text></svg>